# AST/ASF file generated using VICON BodyLanguage
# -----------------------------------------------
:version 1.10
:name VICON
:units
  mass 1.0
  length 0.45
  angle deg
:documentation
   .ast/.asf automatically generated from VICON data using
   VICON BodyBuilder and BodyLanguage model FoxedUp or BRILLIANT.MOD
:root
   order TX TY TZ RX RY RZ
   axis XYZ
   position 0 0 0  
   orientation 0 0 0 
:bonedata
  begin
     id 1 
     name lhipjoint
     direction 0.570549 -0.739093 0.358072 
     length 2.41801 
     axis 0 0 0  XYZ
  end
  begin
     id 2 
     name lfemur
     direction 0.34202 -0.939693 0  
     length 7.44434  
     axis 0 0 20  XYZ
    dof rx ry rz
    limits (-160.0 20.0)
           (-70.0 70.0)
           (-60.0 70.0)
  end
  begin
     id 3 
     name ltibia
     direction 0.34202 -0.939693 0   
     length 7.60047   
     axis 0 0 20   XYZ
    dof rx
    limits (-10.0 170.0)
  end
  begin
     id 4 
     name lfoot
     direction 0.0909041 -0.249757 0.964032   
     length 2.03437   
     axis -90 7.62852e-016 20   XYZ
    dof rx rz
    limits (-45.0 90.0)
           (-70.0 20.0)
  end
  begin
     id 5 
     name ltoes
     direction 1.53547e-011 -4.2174e-011 1   
     length 1.02054   
     axis -90 7.62852e-016 20   XYZ
    dof rx
    limits (-90.0 20.0)
  end
  begin
     id 6 
     name rhipjoint
     direction -0.558096 -0.746754 0.361784   
     length 2.3932  
     axis 0 0 0  XYZ 
  end
  begin
     id 7 
     name rfemur
     direction -0.34202 -0.939693 0   
     length 7.3886   
     axis 0 0 -20   XYZ
    dof rx ry rz
    limits (-160.0 20.0)
           (-70.0 70.0)
           (-70.0 60.0)
  end
  begin
     id 8 
     name rtibia
     direction -0.34202 -0.939693 0   
     length 7.4839   
     axis 0 0 -20   XYZ
    dof rx
    limits (-10.0 170.0)
 end
 begin
     id 9 
     name rfoot
     direction -0.114619 -0.314914 0.942174   
     length 2.25127  
     axis -90 -7.62852e-016 -20   XYZ
    dof rx rz
    limits (-45.0 90.0)
           (-20.0 70.0)
  end
  begin
     id 10 
     name rtoes
     direction -1.53518e-011 -4.21881e-011 1   
     length 1.11821   
     axis -90 -7.62852e-016 -20   XYZ
    dof rx
    limits (-90.0 20.0)
  end
  begin
     id 11 
     name lowerback
     direction -0.00902269 0.996426 -0.0839821   
     length 2.25052   
     axis 0 0 0   XYZ
    dof rx ry rz
    limits (-20.0 45.0)
           (-30.0 30.0)
           (-30.0 30.0)
  end
  begin
     id 12 
     name upperback
     direction 0.0370973 0.999169 -0.0168941   
     length 2.24876   
     axis 0 0 0   XYZ
    dof rx ry rz
    limits (-20.0 45.0)
           (-30.0 30.0)
           (-30.0 30.0)
  end
  begin
     id 13 
     name thorax
     direction 0.0402726 0.998931 0.0227027   
     length 2.26408   
     axis 0 0 0   XYZ
    dof rx ry rz
    limits (-20.0 45.0)
           (-30.0 30.0)
           (-30.0 30.0)
  end
  begin
     id 14 
     name lowerneck
     direction -0.0733697 0.98508 0.155675   
     length 1.58204   
     axis 0 0 0   XYZ
    dof rx ry rz
    limits (-20.0 45.0)
           (-30.0 30.0)
           (-30.0 30.0)
  end
  begin
     id 15 
     name upperneck
     direction 0.0426554 0.993501 -0.105526   
     length 1.61222   
     axis 0 0 0   XYZ
    dof rx ry rz
    limits (-20.0 45.0)
           (-30.0 30.0)
           (-30.0 30.0)
  end
  begin
     id 16
     name head
     direction 0.020792 0.998384 -0.0528868  
     length 1.61527  
     axis 0 0 0   XYZ
    dof rx ry rz
    limits (-20.0 45.0)
           (-30.0 30.0)
           (-30.0 30.0)
  end
  begin
     id 17 
     name lclavicle
     direction 0.967109 0.155462 -0.201325  
     length 3.59357  
     axis 0 0 0   XYZ
    dof ry rz
    limits (-20.0 10.0)
           (0.0 20.0)
  end
  begin
     id 18 
     name lhumerus
     direction 1 -4.48968e-011 2.38195e-027   
     length 5.38154   
     axis 180 -30 -90   XYZ
    dof rx ry rz
    limits (-60.0 90.0)
           (-90.0 90.0)
           (-90.0 90.0)
  end
  begin
     id 19
     name lradius
     direction 1 -4.48961e-011 4.85371e-027   
     length 3.33312   
     axis 180 -30 -90   XYZ
    dof rx
    limits (-10.0 170.0)
  end
  begin
     id 20
     name lwrist
     direction 1 -4.48961e-011 4.76515e-027   
     length 1.66656   
     axis -3.27502e-015 90 90   XYZ
    dof ry
    limits (-180.0 0.0)
 end
  begin
     id 21 
     name lhand
     direction 1 -4.48951e-011 9.53074e-027   
     length 0.710789   
     axis -6.08098e-015 90 90   XYZ
    dof rx rz
    limits (-90.0 90.0)
           (-45.0 45.0)
  end
  begin
     id 22 
     name lfingers
     direction 1 -4.48953e-011 1.90613e-026   
     length 0.573057   
     axis -1.21619e-014 90 90   XYZ
    dof rx
    limits (0.0 90.0)
  end
  begin
     id 23
     name lthumb
     direction 0.707107 -6.34973e-011 0.707107   
     length 0.822798   
     axis -90 45 -9.86923e-015   XYZ
    dof rx rz
    limits (-45.0 45.0)
           (-45.0 45.0)
  end
  begin
     id 24 
     name rclavicle
     direction -0.9585 0.265289 -0.104398   
     length 3.42039  
     axis 0 0 0   XYZ 
    dof ry rz
    limits (-10.0 20.0)
           (-20.0 0.0)
  end
  begin
     id 25 
     name rhumerus
     direction -1 -4.48977e-011 2.21478e-027  
     length 5.16954   
     axis 180 30 90   XYZ
    dof rx ry rz
    limits (-90.0 60.0)
           (-90.0 90.0)
           (-90.0 90.0)
  end
  begin
     id 26 
     name rradius
     direction -1 -4.48967e-011 5.63677e-027   
     length 3.38287   
     axis 180 30 90   XYZ
    dof rx
    limits (-10.0 170.0)
  end
  begin
     id 27 
     name rwrist
     direction -1 -4.48967e-011 4.76501e-027   
     length 1.69144   
     axis -3.27502e-015 -90 -90   XYZ
    dof ry
    limits (-180.0 0.0)
  end
  begin
     id 28
     name rhand
     direction -1 -4.48902e-011 9.53292e-027   
     length 0.817967   
     axis -6.08098e-015 -90 -90   XYZ
    dof rx rz
    limits (-90.0 90.0)
           (-45.0 45.0)
  end
  begin
     id 29
     name rfingers
     direction -1 -4.49012e-011 1.90561e-026   
     length 0.659466   
     axis -1.21619e-014 -90 -90   XYZ
    dof rx
    limits (0.0 90.0)
  end
  begin
     id 30
     name rthumb
     direction -0.707107 -6.34944e-011 0.707107   
     length 0.946865   
     axis -90 -45 9.86923e-015   XYZ
    dof rx rz
    limits (-45.0 45.0)
           (-45.0 45.0)
  end
:hierarchy
  begin
    root lhipjoint rhipjoint lowerback
    lhipjoint lfemur
    lfemur ltibia
    ltibia lfoot
    lfoot ltoes
    rhipjoint rfemur
    rfemur rtibia
    rtibia rfoot
    rfoot rtoes
    lowerback upperback
    upperback thorax
    thorax lowerneck lclavicle rclavicle
    lowerneck upperneck
    upperneck head
    lclavicle lhumerus
    lhumerus lradius
    lradius lwrist
    lwrist lhand lthumb
    lhand lfingers
    rclavicle rhumerus
    rhumerus rradius
    rradius rwrist
    rwrist rhand rthumb
    rhand rfingers
  end

#!OML:ASF F:\twosubjects\two\wednesday\Session 1\Justin1.ASF
:FULLY-SPECIFIED
:DEGREES
265
root -0.00772611 18.4772 -9.83233 -527.563 -0.790215 -181.44
lowerback 11.2604 -0.469569 3.90433
upperback 1.72885 -0.35409 4.13258
thorax -4.4949 -0.379165 2.18945
lowerneck -17.8465 -7.8396 -14.0442
upperneck 6.26966 -8.57424 12.0281
head 5.92909 -3.65592 5.20049
rclavicle -8.74653e-015 -4.6118e-014
rhumerus -18.3309 30.8157 -38.0267
rradius 91.2709
rwrist -52.6098
rhand -6.51991 10.9999
rfingers 7.12502
rthumb 19.3325 -18.0591
lclavicle -8.74653e-015 -4.6118e-014
lhumerus -38.1163 8.12514 60.424
lradius 44.8157
lwrist 3.96466
lhand -12.3797 34.9832
lfingers 7.12502
lthumb 13.6911 64.5128
rfemur -12.1101 12.1949 20.0776
rtibia 29.4877
rfoot 5.7463 8.4389
rtoes 18.1684
lfemur -52.8445 19.9267 -9.74224
ltibia 97.6238
lfoot -11.6134 -5.26582
ltoes -12.577
266
root -0.168768 18.5922 -9.94187 -528.128 1.28357 -181.835
lowerback 11.7876 -0.786707 3.52375
upperback 2.15313 0.0017443 3.91305
thorax -4.36643 0.149105 2.09428
lowerneck -18.1877 -7.90111 -14.1763
upperneck 6.18946 -8.57391 12.1057
head 5.96795 -3.63771 5.24149
rclavicle -3.10104e-014 -1.19271e-013
rhumerus -17.4075 30.7093 -37.4508
rradius 90.2274
rwrist -51.8404
rhand -5.35668 10.947
rfingers 7.12502
rthumb 20.4507 -17.996
lclavicle -3.10104e-014 -1.19271e-013
lhumerus -38.1822 7.86448 60.0889
lradius 44.9817
lwrist 4.05764
lhand -11.7866 35.2415
lfingers 7.12502
lthumb 14.2626 64.7318
rfemur -11.7536 11.1792 19.3539
rtibia 29.8225
rfoot 8.29079 7.57391
rtoes 15.7562
lfemur -52.2631 18.8515 -10.3831
ltibia 95.6692
lfoot -11.5464 -5.37351
ltoes -12.4393
267
root -0.327257 18.6921 -10.0563 -528.884 3.56837 -182.432
lowerback 12.4679 -0.547255 2.89747
upperback 2.30595 0.244445 3.65567
thorax -4.5834 0.269005 2.14348
lowerneck -17.4238 -7.86408 -13.9523
upperneck 5.9097 -8.61803 11.6756
head 5.72955 -3.71576 5.0716
rclavicle 1.27222e-014 -2.70347e-014
rhumerus -16.7475 31.1312 -36.9134
rradius 89.3709
rwrist -51.2175
rhand -4.3635 11.1929
rfingers 7.12502
rthumb 21.4049 -17.6447
lclavicle 1.27222e-014 -2.70347e-014
lhumerus -38.8162 7.36725 59.5912
lradius 45.0561
lwrist 4.30115
lhand -12.1534 34.991
lfingers 7.12502
lthumb 13.9091 64.5058
rfemur -11.2808 10.2277 18.4576
rtibia 30.1993
rfoot 10.3723 6.7144
rtoes 13.5791
lfemur -51.3582 17.9945 -11.1894
ltibia 93.6634
lfoot -11.7058 -5.64617
ltoes -11.7851
268
root -0.474156 18.7355 -10.0983 -528.773 6.27481 -181.155
lowerback 13.2605 -0.0799072 3.72149
upperback 2.25603 1.0697 3.87055
thorax -5.0791 0.672787 1.76796
lowerneck -17.4631 -7.94743 -13.5459
upperneck 6.03501 -8.78193 11.2561
head 5.7546 -3.81591 4.84646
rclavicle 1.03368e-014 3.97569e-014
rhumerus -15.9378 31.219 -36.3193
rradius 88.5301
rwrist -50.6922
rhand -3.83146 10.5213
rfingers 7.12502
rthumb 21.9158 -18.2574
lclavicle 1.03368e-014 3.97569e-014
lhumerus -39.1171 6.96175 59.017
lradius 45.0866
lwrist 4.12083
lhand -12.1557 34.9181
lfingers 7.12502
lthumb 13.907 64.433
rfemur -12.0806 10.5574 19.5956
rtibia 30.7452
rfoot 12.0839 5.02332
rtoes 11.9488
lfemur -52.1008 18.6514 -10.0869
ltibia 92.055
lfoot -11.299 -6.62513
ltoes -15.009
269
root -0.639888 18.8125 -10.237 -529.157 7.9343 -181.206
lowerback 13.2736 0.0259421 4.13739
upperback 2.52038 1.25826 3.71994
thorax -4.79667 0.767722 1.34177
lowerneck -18.0308 -8.26046 -13.5187
upperneck 6.53678 -9.16419 11.1364
head 6.04224 -3.99317 4.73836
rclavicle -7.95139e-015 -7.79236e-014
rhumerus -15.0901 31.2586 -35.618
rradius 87.4048
rwrist -50.4109
rhand -3.94373 10.0658
rfingers 7.12502
rthumb 21.808 -18.7255
lclavicle -7.95139e-015 -7.79236e-014
lhumerus -39.3288 6.48363 58.6183
lradius 45.3436
lwrist 3.94785
lhand -11.7555 35.2265
lfingers 7.12502
lthumb 14.2926 64.7146
rfemur -11.6899 8.63855 19.4534
rtibia 31.2749
rfoot 12.3892 4.24591
rtoes 11.3761
lfemur -51.5434 17.5403 -10.421
ltibia 89.9965
lfoot -11.5847 -6.88624
ltoes -18.3574
270
root -0.793711 18.8728 -10.3593 -529.449 9.93716 -181.463
lowerback 13.1808 0.33359 4.09626
upperback 2.82867 1.63345 3.56877
thorax -4.41499 0.961468 1.14422
lowerneck -17.1985 -8.76848 -14.6409
upperneck 5.70456 -9.78151 12.24
head 5.84607 -4.26592 5.21742
rclavicle 1.66979e-014 9.06458e-014
rhumerus -14.3024 31.2064 -34.7467
rradius 86.2797
rwrist -50.0912
rhand -4.12514 10.4356
rfingers 7.12502
rthumb 21.6338 -18.3759
lclavicle 1.66979e-014 9.06458e-014
lhumerus -39.2265 6.0229 58.3543
lradius 45.4342
lwrist 3.90767
lhand -11.4291 35.5134
lfingers 7.12502
lthumb 14.6071 64.979
rfemur -11.5892 7.28473 19.1144
rtibia 31.8543
rfoot 12.3443 2.7053
rtoes 10.7943
lfemur -51.0789 16.7935 -10.9336
ltibia 87.9484
lfoot -11.7185 -7.28905
ltoes -20.0249
271
root -0.932683 18.9064 -10.4665 -529.554 12.1997 -181.103
lowerback 13.1374 0.629281 4.35785
upperback 3.19342 2.05318 3.47601
thorax -3.99202 1.18314 0.834757
lowerneck -16.9329 -8.7897 -14.9255
upperneck 5.15193 -9.83674 13.1441
head 5.71143 -4.24083 5.56212
rclavicle 3.97569e-015 4.77083e-015
rhumerus -13.27 31.0253 -34.1197
rradius 85.1752
rwrist -49.7175
rhand -3.96644 10.8082
rfingers 7.12502
rthumb 21.7862 -17.9856
lclavicle 3.97569e-015 4.77083e-015
lhumerus -38.987 5.82412 57.671
lradius 45.3563
lwrist 3.76031
lhand -11.0905 35.4592
lfingers 7.12502
lthumb 14.9333 64.9009
rfemur -11.619 6.73423 19.5753
rtibia 32.2456
rfoot 12.4348 -0.260739
rtoes 10.7799
lfemur -50.7898 16.5909 -10.6525
ltibia 85.895
lfoot -11.5887 -7.85652
ltoes -21.761
272
root -1.07566 18.9254 -10.5796 -529.52 14.4028 -180.227
lowerback 13.2673 0.845213 5.12351
upperback 3.26864 2.46291 3.51323
thorax -3.94871 1.38628 0.37703
lowerneck -16.8711 -8.60982 -14.9635
upperneck 5.37011 -9.63764 13.3027
head 5.75432 -4.1414 5.64845
rclavicle -2.46493e-014 -2.54444e-014
rhumerus -12.3456 31.3024 -33.5259
rradius 84.1481
rwrist -49.5946
rhand -3.60816 10.7165
rfingers 7.12502
rthumb 22.1302 -18.0369
lclavicle -2.46493e-014 -2.54444e-014
lhumerus -39.3131 5.54209 56.8789
lradius 45.3217
lwrist 3.50821
lhand -10.6373 35.3604
lfingers 7.12502
lthumb 15.3698 64.7691
rfemur -11.6387 6.00177 20.6446
rtibia 32.6967
rfoot 12.2996 -3.29255
rtoes 10.0434
lfemur -50.4927 16.4501 -9.79379
ltibia 83.7991
lfoot -11.2401 -8.39549
ltoes -22.7663
273
root -1.21861 18.945 -10.7161 -529.83 16.4223 -180.39
lowerback 13.2329 1.0682 5.07932
upperback 3.40244 2.71237 3.26759
thorax -3.77088 1.50748 0.108611
lowerneck -16.0092 -8.48085 -15.4129
upperneck 4.93683 -9.54058 14.0332
head 5.53606 -4.09262 5.99562
rclavicle 1.11319e-014 1.27222e-014
rhumerus -11.4212 31.534 -32.9104
rradius 82.9892
rwrist -49.502
rhand -2.69415 10.3135
rfingers 7.12502
rthumb 23.0075 -18.3334
lclavicle 1.11319e-014 1.27222e-014
lhumerus -39.498 5.14682 56.1163
lradius 45.1889
lwrist 3.31743
lhand -10.2339 35.4
lfingers 7.12502
lthumb 15.7584 64.7785
rfemur -11.3975 4.47887 20.5971
rtibia 33.1734
rfoot 11.7877 -5.81578
rtoes 8.23331
lfemur -49.8469 15.7629 -10.0756
ltibia 81.5078
lfoot -10.7894 -8.73109
ltoes -22.554
274
root -1.35101 18.9692 -10.866 -530.794 18.5479 -182.06
lowerback 13.2491 1.39014 3.64847
upperback 3.62688 2.8565 2.59289
thorax -3.5705 1.57184 0.185942
lowerneck -15.2523 -8.62517 -15.3506
upperneck 4.52911 -9.84393 14.1718
head 5.33921 -4.2628 6.00929
rclavicle 2.62396e-014 1.59028e-014
rhumerus -10.6241 31.6278 -32.476
rradius 81.7464
rwrist -49.2921
rhand -2.09568 10.5068
rfingers 7.12502
rthumb 23.5816 -18.0673
lclavicle 2.62396e-014 1.59028e-014
lhumerus -39.5811 4.65387 55.2984
lradius 45.0686
lwrist 3.34619
lhand -10.1291 35.5604
lfingers 7.12502
lthumb 15.8593 64.9309
rfemur -10.9459 2.65243 18.9392
rtibia 33.7893
rfoot 10.9983 -8.48595
rtoes 8.68154
lfemur -48.7091 14.798 -11.9019
ltibia 78.9898
lfoot -10.1751 -8.81503
ltoes -21.4075
275
root -1.49779 18.9541 -10.9711 -530.275 21.0818 -181.455
lowerback 13.3292 1.82819 4.17027
upperback 3.3393 3.47624 2.44831
thorax -3.86246 1.84993 -0.363727
lowerneck -14.9108 -8.94038 -15.0909
upperneck 4.76129 -10.3767 13.8524
head 5.39905 -4.55632 5.79982
rclavicle -5.56597e-015 7.79236e-014
rhumerus -9.91289 31.841 -32.0638
rradius 80.508
rwrist -49.0929
rhand -1.1944 10.8693
rfingers 7.12502
rthumb 24.4459 -17.5909
lclavicle -5.56597e-015 7.79236e-014
lhumerus -39.9216 4.09514 54.4974
lradius 44.9588
lwrist 3.36777
lhand -10.0288 35.5375
lfingers 7.12502
lthumb 15.956 64.9003
rfemur -11.5365 2.14969 19.7374
rtibia 34.2095
rfoot 10.381 -12.1932
rtoes 12.3442
lfemur -48.905 14.9375 -11.4056
ltibia 76.6814
lfoot -9.14902 -9.07352
ltoes -22.7382
276
root -1.65047 18.9001 -11.0377 -529.499 23.5169 -180.294
lowerback 13.8904 2.27715 4.98947
upperback 2.97873 4.22069 2.50563
thorax -4.46924 2.18153 -0.919165
lowerneck -16.2089 -7.85117 -8.74433
upperneck 5.87645 -9.62182 9.35152
head 5.27101 -4.28367 3.40797
rclavicle -5.48646e-014 1.43125e-014
rhumerus -8.88731 31.9399 -31.4267
rradius 78.8653
rwrist -49.089
rhand 0.102143 10.9645
rfingers 7.12502
rthumb 25.6882 -17.3221
lclavicle -5.48646e-014 1.43125e-014
lhumerus -40.2244 3.73757 53.7464
lradius 44.9318
lwrist 3.15467
lhand -9.62956 35.3604
lfingers 7.12502
lthumb 16.3403 64.692
rfemur -12.2633 1.95476 21.2324
rtibia 34.5724
rfoot 9.34485 -16.6284
rtoes 17.1792
lfemur -49.3617 15.0579 -10.2315
ltibia 74.3387
lfoot -8.10573 -9.34068
ltoes -26.3104
277
root -1.78655 18.8904 -11.2199 -529.602 25.3082 -180.175
lowerback 13.1314 2.41025 5.51573
upperback 3.38672 4.39688 2.34823
thorax -3.56434 2.30022 -1.3444
lowerneck -15.3191 -9.62982 -14.4329
upperneck 5.62138 -11.412 13.2092
head 5.7973 -5.07272 5.32871
rclavicle 6.59965e-014 2.54444e-014
rhumerus -7.2228 31.6873 -30.3711
rradius 77.2349
rwrist -49.4601
rhand 0.0996949 10.5513
rfingers 7.12502
rthumb 25.6859 -17.7357
lclavicle 6.59965e-014 2.54444e-014
lhumerus -40.1709 4.01498 53.025
lradius 44.9383
lwrist 2.9481
lhand -9.07392 35.677
lfingers 7.12502
lthumb 16.8753 64.9638
rfemur -11.7108 -0.410833 21.4133
rtibia 34.6657
rfoot 7.84585 -19.3035
rtoes 18.6555
lfemur -48.3751 14.1738 -9.97683
ltibia 71.7775
lfoot -7.31908 -9.60645
ltoes -26.6544
278
root -1.91872 18.8681 -11.3666 -529.533 27.703 -180.101
lowerback 13.2853 2.80203 5.61677
upperback 3.1491 4.89831 2.07281
thorax -3.83363 2.51802 -1.77965
lowerneck -14.5532 -10.0074 -15.2465
upperneck 5.68632 -12.0099 14.1894
head 5.90001 -5.35396 5.71568
rclavicle -3.02153e-014 -3.02153e-014
rhumerus -6.51464 31.9278 -29.8684
rradius 76.1603
rwrist -49.8116
rhand -0.000430363 10.0717
rfingers 7.12502
rthumb 25.59 -18.2291
lclavicle -3.02153e-014 -3.02153e-014
lhumerus -40.8085 3.54996 52.1585
lradius 45.1275
lwrist 3.23452
lhand -8.69914 36.35
lfingers 7.12502
lthumb 17.236 65.6056
rfemur -11.5933 -1.78364 21.5668
rtibia 34.7523
rfoot 6.03275 -21.4147
rtoes 17.3436
lfemur -47.5666 13.6886 -9.63123
ltibia 69.119
lfoot -5.43947 -9.95086
ltoes -24.5999
